<svg width="24" height="22" viewBox="0 0 24 22" fill="none" xmlns="http://www.w3.org/2000/svg">
<g clip-path="url(#clip0_2394_1907)">
<path d="M12 6.09123C13.11 6.09123 14 5.30849 14 4.35181C14 4.02132 13.9 3.71693 13.71 3.45601L12 0.872986L10.29 3.45601C10.1 3.71693 10 4.02132 10 4.35181C10 5.30849 10.9 6.09123 12 6.09123ZM16.6 14.7796L15.53 13.849L14.45 14.7796C13.15 15.9102 10.87 15.9189 9.56001 14.7796L8.49001 13.849L7.40001 14.7796C6.75001 15.3449 5.88 15.658 4.96 15.658C4.23 15.658 3.56 15.458 3 15.1275V19.1368C3 19.6152 3.45 20.0065 4 20.0065H20C20.55 20.0065 21 19.6152 21 19.1368V15.1275C20.44 15.458 19.77 15.658 19.04 15.658C18.12 15.658 17.25 15.3449 16.6 14.7796ZM18 8.70035H13V6.96093H11V8.70035H6C4.34 8.70035 3 9.86575 3 11.3095V12.6488C3 13.5881 3.88 14.3534 4.96 14.3534C5.48 14.3534 5.98 14.1795 6.34 13.8577L8.48001 12.0052L10.61 13.8577C11.35 14.5013 12.64 14.5013 13.38 13.8577L15.52 12.0052L17.65 13.8577C18.02 14.1795 18.51 14.3534 19.03 14.3534C20.11 14.3534 20.99 13.5881 20.99 12.6488V11.3095C21 9.86575 19.66 8.70035 18 8.70035Z" fill="black"/>
</g>
<defs>
<clipPath id="clip0_2394_1907">
<rect width="24" height="20.873" fill="white" transform="translate(0 0.872986)"/>
</clipPath>
</defs>
</svg>
