<svg width="16" height="17" viewBox="0 0 16 17" fill="none" xmlns="http://www.w3.org/2000/svg">
<path d="M12.9335 10.2547C12.3961 10.1391 11.971 10.3886 11.5946 10.6064C11.2091 10.831 10.4761 11.4256 10.056 11.2734C7.90488 10.3877 5.88171 8.50496 5.00592 6.34526C4.85156 5.91615 5.4434 5.17851 5.66627 4.78848C5.88254 4.41093 6.12687 3.98181 6.01543 3.44043C5.91473 2.95394 4.61218 1.29654 4.15158 0.843308C3.84782 0.543928 3.53663 0.379269 3.21718 0.352657C2.01616 0.301097 0.674814 1.90361 0.439563 2.28699C-0.149804 3.10446 -0.146502 4.19221 0.449468 5.51115C1.88574 9.05382 7.31799 14.4003 10.874 15.8905C11.5302 16.1974 12.1303 16.3512 12.6693 16.3512C13.1968 16.3512 13.6665 16.204 14.0701 15.9121C14.3747 15.7367 16.0429 14.3287 15.9992 13.0955C15.9728 12.7811 15.8085 12.4668 15.513 12.1624C15.0631 11.6975 13.4164 10.3561 12.9335 10.2547Z" fill="black"/>
</svg>
