<svg width="16" height="14" viewBox="0 0 16 14" fill="none" xmlns="http://www.w3.org/2000/svg">
<path fill-rule="evenodd" clip-rule="evenodd" d="M11.9512 0.960449C13.024 0.960449 14.056 1.34457 14.8152 2.03381C15.5752 2.72161 16 3.64929 16 4.62047V10.346C16 12.3681 14.184 14.0061 11.9512 14.0061H4.04801C1.8152 14.0061 0 12.3681 0 10.346V4.62047C0 2.5984 1.8072 0.960449 4.04801 0.960449H11.9512ZM13.2234 5.70025L13.2874 5.64227C13.4786 5.43209 13.4786 5.12769 13.2786 4.91751C13.1674 4.80952 13.0146 4.74357 12.8554 4.72908C12.6874 4.7211 12.5274 4.77256 12.4066 4.87403L8.7994 7.48315C8.3354 7.83176 7.6706 7.83176 7.1994 7.48315L3.5994 4.87403C3.3506 4.70733 3.0066 4.72908 2.7994 4.92476C2.58339 5.12044 2.55939 5.43209 2.74259 5.64952L2.8474 5.74373L6.4874 8.31662C6.9354 8.63551 7.4786 8.80945 8.0474 8.80945C8.6146 8.80945 9.1674 8.63551 9.6146 8.31662L13.2234 5.70025Z" fill="black"/>
</svg>
