<svg width="30" height="30" viewBox="0 0 30 30" fill="none" xmlns="http://www.w3.org/2000/svg">
<g opacity="0.8">
<rect width="30" height="30" rx="15" fill="white"/>
<path d="M22.0264 22.0674C22.5095 21.5881 23.2836 21.5879 23.7666 22.0674L26.96 24.6455H27.0156C27.6615 25.2984 27.6613 26.3568 27.0156 27.0098C26.3696 27.6628 25.3218 27.6628 24.6758 27.0098L22.0264 23.9727C21.7758 23.7203 21.6348 23.378 21.6348 23.0205C21.6348 22.663 21.7758 22.3197 22.0264 22.0674ZM13.2217 2.5C16.0653 2.5 18.793 3.64153 20.8037 5.67383C22.8145 7.70624 23.9443 10.4636 23.9443 13.3379C23.9441 19.323 19.1431 24.1748 13.2217 24.1748C7.30038 24.1746 2.50026 19.3229 2.5 13.3379C2.5 7.35268 7.30023 2.5002 13.2217 2.5Z" fill="black"/>
</g>
</svg>
