<svg width="27" height="21" viewBox="0 0 27 21" fill="none" xmlns="http://www.w3.org/2000/svg">
<path d="M25.7488 12.3908L24.3366 11.5401C23.4281 10.9915 22.7017 10.2331 22.2387 9.34583C20.1967 5.43511 16.1918 3.00708 11.7857 3.00708C5.28637 3.00708 0 8.29356 0 14.7928C0.00212664 16.2113 1.155 17.3641 2.57366 17.3641H3.06003C3.36435 19.0678 4.85364 20.3642 6.64284 20.3642C8.4322 20.3642 9.92153 19.0678 10.2257 17.3641H15.06C15.3643 19.0678 16.8536 20.3642 18.6428 20.3642C20.4322 20.3642 21.9215 19.0678 22.2256 17.3641H24.4135C25.8408 17.3641 27 16.2028 27 14.7777V14.6063C27.0002 13.7041 26.5202 12.8556 25.7487 12.3905L25.7488 12.3908ZM6.64324 19.0785C5.34256 19.0785 4.28605 18.022 4.28605 16.7213C4.28605 15.4206 5.34256 14.3641 6.64324 14.3641C7.94393 14.3641 9.00044 15.4206 9.00044 16.7213C9.00044 18.022 7.94393 19.0785 6.64324 19.0785ZM6.48247 11.1501C5.80961 11.1501 5.43891 10.3636 5.86955 9.84937C7.28615 8.15653 9.4117 7.07851 11.7864 7.07851C14.1606 7.07851 16.2864 8.15631 17.7026 9.84937C18.1333 10.3636 17.7626 11.1501 17.0897 11.1501H6.48247ZM18.6433 19.0785C17.3426 19.0785 16.2861 18.022 16.2861 16.7213C16.2861 15.4206 17.3426 14.3641 18.6433 14.3641C19.944 14.3641 21.0005 15.4206 21.0005 16.7213C21.0005 18.022 19.9442 19.0785 18.6433 19.0785Z" fill="black"/>
<path d="M8.53285 0.367055C6.72433 0.7741 5.02703 1.51144 3.48864 2.55924C3.19516 2.75851 3.11796 3.1592 3.31936 3.45286C3.44355 3.6349 3.64516 3.73357 3.85081 3.73357C3.975 3.73357 4.10155 3.69721 4.21085 3.62214C5.61656 2.6664 7.16583 1.99354 8.81381 1.62072C9.16088 1.54352 9.3774 1.19858 9.30018 0.8515C9.22511 0.506346 8.87994 0.289877 8.53285 0.367055Z" fill="black"/>
<path d="M1.15112 4.53084C0.814684 4.87792 0.493348 5.24649 0.19326 5.62372C-0.0274878 5.90232 0.019725 6.30725 0.298318 6.52584C0.416138 6.62005 0.557557 6.66513 0.696854 6.66513C0.885487 6.66513 1.07391 6.58155 1.20045 6.42078C1.47479 6.07584 1.76828 5.73938 2.07474 5.42209C2.32122 5.1671 2.31484 4.75984 2.05751 4.51355C1.80466 4.26707 1.3974 4.27579 1.15115 4.53077L1.15112 4.53084Z" fill="black"/>
</svg>
