<svg width="45" height="44" viewBox="0 0 45 44" fill="none" xmlns="http://www.w3.org/2000/svg">
<path d="M32.2027 0.971191C28.3849 0.971191 24.7208 2.85343 22.3292 5.82783C19.9376 2.85343 16.2735 0.971191 12.4557 0.971191C5.69791 0.971191 0.388184 6.59467 0.388184 13.7518C0.388184 22.5356 7.84813 29.6928 19.1478 40.5679L22.3292 43.612L25.5106 40.5447C36.8103 29.6928 44.2702 22.5356 44.2702 13.7518C44.2702 6.59467 38.9605 0.971191 32.2027 0.971191ZM22.5486 37.1055L22.3292 37.3379L22.1098 37.1055C11.6659 27.0901 4.77639 20.4675 4.77639 13.7518C4.77639 9.10432 8.06754 5.61869 12.4557 5.61869C15.8347 5.61869 19.1258 7.91921 20.2887 11.1027H24.3917C25.5326 7.91921 28.8237 5.61869 32.2027 5.61869C36.5909 5.61869 39.882 9.10432 39.882 13.7518C39.882 20.4675 32.9925 27.0901 22.5486 37.1055Z" fill="#598552"/>
</svg>
