<svg width="14" height="19" viewBox="0 0 14 19" fill="none" xmlns="http://www.w3.org/2000/svg">
<path fill-rule="evenodd" clip-rule="evenodd" d="M0 8.08612C0 3.94021 3.16555 0.589233 6.99461 0.589233C10.8345 0.589233 14 3.94021 14 8.08612C14 10.1753 13.3058 12.1149 12.1631 13.7588C10.9026 15.5722 9.34885 17.1521 7.59999 18.3923C7.19972 18.6789 6.83849 18.7006 6.3992 18.3923C4.64038 17.1521 3.08666 15.5722 1.83688 13.7588C0.693399 12.1149 0 10.1753 0 8.08612ZM4.6897 8.31894C4.6897 9.70782 5.72523 10.8002 6.99494 10.8002C8.26548 10.8002 9.31097 9.70782 9.31097 8.31894C9.31097 6.94087 8.26548 5.79534 6.99494 5.79534C5.72523 5.79534 4.6897 6.94087 4.6897 8.31894Z" fill="black"/>
</svg>
