<svg width="16" height="20" viewBox="0 0 16 20" fill="none" xmlns="http://www.w3.org/2000/svg">
<path fill-rule="evenodd" clip-rule="evenodd" d="M7.28305 0.387624C6.38791 0.526836 5.68285 0.773043 4.96852 1.19579C4.63585 1.39267 3.93482 1.9668 3.66813 2.26079C2.83672 3.17733 2.29694 4.24747 2.05345 5.46188C2.0038 5.70957 1.92958 6.39356 1.92914 6.60735C1.92893 6.70853 1.91529 6.81188 1.89881 6.83698C1.88233 6.86208 1.75386 6.92913 1.61335 6.98597C0.894087 7.27697 0.343291 7.81816 0.0869337 8.48575L0 8.71211V11.9818C0 15.0983 0.00271574 15.2609 0.0582336 15.4527C0.38557 16.5838 1.30925 17.5449 2.74657 18.2499C3.90541 18.8183 5.09202 19.1387 6.65041 19.3041C7.24596 19.3673 8.75055 19.3672 9.33527 19.3039C11.0851 19.1144 12.6137 18.6451 13.79 17.9361C14.1478 17.7204 14.8651 17.1458 15.0971 16.8891C15.4668 16.4801 15.7239 16.0513 15.8608 15.615C15.9821 15.2285 15.9985 14.7902 15.9999 11.9037C16.0013 8.99637 15.99 8.79554 15.7993 8.32986C15.5631 7.75309 15.0402 7.27894 14.31 6.97923C14.0617 6.87729 14.026 6.82835 14.026 6.58888C14.026 6.40742 13.9551 5.78867 13.9004 5.49274C13.6333 4.04759 12.9359 2.81387 11.8264 1.82359C11.1371 1.20829 10.255 0.738284 9.39658 0.528849C8.72775 0.365692 8.60107 0.349168 8.03663 0.351657C7.72957 0.353016 7.40646 0.368433 7.28305 0.387624ZM7.5145 2.66156C5.78373 2.92192 4.60968 4.36654 4.44189 6.4422L4.42004 6.71258H7.97617H11.5323L11.5112 6.4422C11.4266 5.3572 11.0752 4.45842 10.4616 3.7573C9.97762 3.2043 9.41343 2.86762 8.70263 2.70763C8.46108 2.65326 7.75234 2.62576 7.5145 2.66156ZM7.63794 10.2703C6.609 10.4285 5.9575 10.9395 5.7708 11.7347C5.67914 12.1252 5.72423 12.4823 5.90655 12.81C6.03629 13.0432 6.15714 13.1758 6.45994 13.417L6.72756 13.6303L6.74299 14.466L6.75842 15.3018L7.96969 15.3083L9.18096 15.3149V14.5467C9.18096 13.9385 9.19013 13.7606 9.22497 13.6926C9.24916 13.6454 9.37795 13.5185 9.51117 13.4105C9.90106 13.0945 10.082 12.8328 10.1811 12.4417C10.3342 11.8376 10.0942 11.2066 9.54549 10.7707C9.20744 10.5021 8.83351 10.3433 8.37069 10.2718C8.08564 10.2277 7.91692 10.2274 7.63794 10.2703Z" fill="black"/>
</svg>
