<svg width="46" height="48" viewBox="0 0 46 48" fill="none" xmlns="http://www.w3.org/2000/svg">
<g clip-path="url(#clip0_2394_2066)">
<path d="M12.148 19.918C10.0793 19.918 8.38672 21.7106 8.38672 23.9015C8.38672 26.0925 10.0793 27.8851 12.148 27.8851C14.2168 27.8851 15.9094 26.0925 15.9094 23.9015C15.9094 21.7106 14.2168 19.918 12.148 19.918ZM34.7159 19.918C32.6472 19.918 30.9546 21.7106 30.9546 23.9015C30.9546 26.0925 32.6472 27.8851 34.7159 27.8851C36.7847 27.8851 38.4773 26.0925 38.4773 23.9015C38.4773 21.7106 36.7847 19.918 34.7159 19.918ZM23.432 19.918C21.3633 19.918 19.6707 21.7106 19.6707 23.9015C19.6707 26.0925 21.3633 27.8851 23.432 27.8851C25.5007 27.8851 27.1933 26.0925 27.1933 23.9015C27.1933 21.7106 25.5007 19.918 23.432 19.918Z" fill="black"/>
</g>
<defs>
<clipPath id="clip0_2394_2066">
<rect width="45.1358" height="47.8029" fill="white" transform="translate(0.864258)"/>
</clipPath>
</defs>
</svg>
